<svg width="94" height="42" viewBox="0 0 94 42" fill="none" xmlns="http://www.w3.org/2000/svg">
<path d="M27.112 26.8H11.512L8.536 34H0.568L15.544 0.399998H23.224L38.248 34H30.088L27.112 26.8ZM24.664 20.896L19.336 8.032L14.008 20.896H24.664ZM41.734 0.399998H49.51V27.664H66.358V34H41.734V0.399998ZM70.7028 0.399998H78.4788V34H70.7028V0.399998Z" fill="#3B15AA"/>
<path d="M88.7568 17.152C87.4448 17.152 86.3408 16.704 85.4448 15.808C84.5488 14.912 84.1008 13.792 84.1008 12.448C84.1008 11.072 84.5488 9.968 85.4448 9.136C86.3408 8.272 87.4448 7.84 88.7568 7.84C90.0688 7.84 91.1728 8.272 92.0688 9.136C92.9648 9.968 93.4128 11.072 93.4128 12.448C93.4128 13.792 92.9648 14.912 92.0688 15.808C91.1728 16.704 90.0688 17.152 88.7568 17.152ZM88.8047 25.072C90.1488 25.072 91.2528 25.504 92.1168 26.368C92.9808 27.2 93.4128 28.304 93.4128 29.68C93.4128 30.32 93.3328 30.96 93.1728 31.6C93.0128 32.24 92.6608 33.2 92.1168 34.48L89.3808 41.392H84.6288L86.7408 33.76C85.9408 33.44 85.3008 32.928 84.8208 32.224C84.3728 31.488 84.1488 30.64 84.1488 29.68C84.1488 28.304 84.5808 27.2 85.4448 26.368C86.3408 25.504 87.4608 25.072 88.8047 25.072Z" fill="#F05757"/>
</svg>
